# xmcd
#
# Track frame offsets:
#	150
#	17137
#	31428
#	49318
#	73594
#	86463
#	101906
#	117774
#	129886
#	150759
#	165593
#	179123
#
# Disc length: 2549 seconds
#
# Revision: 1
# Processed by: cddbd v1.4PL0 Copyright (c) Steve Scherf et al.
# Submitted via: audiograbber 1.81.01
#
DISCID=9609f30c
DTITLE=Donatello - I Grandi Successi Originali cd2
DYEAR=1900
DGENRE=Pop
TTITLE0=Tù giovane amore mio
TTITLE1=L'ultimo tram
TTITLE2=La vuoi
TTITLE3=E bello
TTITLE4=Notte di verità
TTITLE5=Occhi di foglia
TTITLE6=Quaggiù in città
TTITLE7=Solo
TTITLE8=Principio e fine
TTITLE9=Senza buona notte
TTITLE10=Irenè
TTITLE11=Sempre, e così
EXTD=
EXTT0=
EXTT1=
EXTT2=
EXTT3=
EXTT4=
EXTT5=
EXTT6=
EXTT7=
EXTT8=
EXTT9=
EXTT10=
EXTT11=
PLAYORDER=
